<?xml version="1.0" encoding="utf-8"?>

<svg version="1.1" id="Icons" xmlns="http://www.w3.org/2000/svg" xmlns:xlink="http://www.w3.org/1999/xlink" x="0px" y="0px"
	 viewBox="0 0 32 32" style="enable-background:new 0 0 32 32;" xml:space="preserve">
<g>
	<path d="M21.5,9.1c-0.3-0.2-0.7-0.2-1,0l-2,1c-1.8,0.9-3.9,1.4-6,1.4c-2,0-3.5,1.6-3.5,3.6c0,1.1,0.5,2,1.2,2.7l2.3,4.6
		c0.2,0.3,0.5,0.6,0.9,0.6h2.5c0.6,0,1-0.4,1-1v-2.5c0.5,0.2,1.1,0.4,1.6,0.7l2,1c0.1,0.1,0.3,0.1,0.5,0.1c0.2,0,0.4,0,0.5-0.1
		c0.3-0.2,0.5-0.5,0.5-0.9V10C22,9.7,21.8,9.3,21.5,9.1z M20,18.7l-0.6-0.3c-0.8-0.4-1.6-0.7-2.5-1v-4.5c0.9-0.3,1.7-0.6,2.5-1
		l0.6-0.3V18.7z"/>
	<path d="M30,16c0-2.7-0.8-5.3-2.3-7.6c0.3-0.5,0.5-1,0.5-1.6c0-0.8-0.3-1.6-0.9-2.1c-1-1-2.5-1.1-3.7-0.4C21.3,2.8,18.7,2,16,2
		c-2.7,0-5.3,0.8-7.6,2.3C7.2,3.5,5.7,3.7,4.7,4.7C4.1,5.3,3.8,6,3.8,6.8c0,0.6,0.2,1.1,0.5,1.6C2.8,10.7,2,13.3,2,16
		c0,2.7,0.8,5.3,2.3,7.6c-0.3,0.5-0.5,1-0.5,1.6c0,0.8,0.3,1.6,0.9,2.1c0.6,0.6,1.4,0.9,2.1,0.9c0.5,0,1.1-0.2,1.6-0.5
		c2.3,1.5,4.9,2.3,7.6,2.3c2.7,0,5.3-0.8,7.6-2.3c0.5,0.3,1,0.5,1.6,0.5c0.8,0,1.5-0.3,2.1-0.9c0.6-0.6,0.9-1.3,0.9-2.1
		c0-0.6-0.2-1.1-0.5-1.6C29.2,21.3,30,18.7,30,16z M9.6,26.2c0.1-0.3,0.2-0.6,0.2-1c0-0.8-0.3-1.6-0.9-2.1c-0.8-0.8-2-1.1-3.1-0.7
		C4.6,20.5,4,18.3,4,16c0-2.3,0.6-4.5,1.8-6.4c0.3,0.1,0.6,0.2,1,0.2c0.8,0,1.5-0.3,2.1-0.9c0.6-0.6,0.9-1.3,0.9-2.1
		c0-0.3-0.1-0.7-0.2-1C11.5,4.6,13.7,4,16,4c2.3,0,4.5,0.6,6.4,1.8c-0.1,0.3-0.2,0.6-0.2,1c0,0.8,0.3,1.6,0.9,2.1
		c0.6,0.6,1.4,0.9,2.1,0.9c0.3,0,0.7-0.1,1-0.2c1.2,1.9,1.8,4.1,1.8,6.4c0,2.3-0.6,4.5-1.8,6.4c-1.1-0.4-2.3-0.1-3.1,0.7
		c-0.6,0.6-0.9,1.3-0.9,2.1c0,0.3,0.1,0.7,0.2,1C20.5,27.4,18.3,28,16,28C13.7,28,11.5,27.4,9.6,26.2z"/>
</g>
</svg>
