<svg width="20" height="20" viewBox="0 0 20 20" fill="none" xmlns="http://www.w3.org/2000/svg">
<path d="M10 18.3333C5.41669 18.3333 1.66669 14.5833 1.66669 10C1.66669 9.5 2.00002 9.16667 2.50002 9.16667C3.00002 9.16667 3.33335 9.5 3.33335 10C3.33335 13.6667 6.33335 16.6667 10 16.6667C13.6667 16.6667 16.6667 13.6667 16.6667 10C16.6667 6.33333 13.6667 3.33333 10 3.33333C7.75002 3.33333 5.66669 4.41667 4.50002 6.33333C4.16669 6.66667 3.66669 6.75 3.33335 6.5C2.91669 6.25 2.83335 5.75 3.08335 5.33333C4.58335 3.08333 7.25002 1.66667 10 1.66667C14.5834 1.66667 18.3334 5.41667 18.3334 10C18.3334 14.5833 14.5834 18.3333 10 18.3333Z" fill="#293A30" fill-opacity="0.6"/>
<path d="M10 10.8333C9.50002 10.8333 9.16669 10.5 9.16669 10V5.83333C9.16669 5.33333 9.50002 5 10 5C10.5 5 10.8334 5.33333 10.8334 5.83333V10C10.8334 10.5 10.5 10.8333 10 10.8333Z" fill="#293A30" fill-opacity="0.6"/>
<path d="M12.5 13.3333C12.25 13.3333 12.0834 13.25 11.9167 13.0833L9.41669 10.5833C9.08335 10.25 9.08335 9.75001 9.41669 9.41667C9.75002 9.08334 10.25 9.08334 10.5834 9.41667L13.0834 11.9167C13.4167 12.25 13.4167 12.75 13.0834 13.0833C12.9167 13.25 12.75 13.3333 12.5 13.3333Z" fill="#293A30" fill-opacity="0.6"/>
<path d="M6.66667 6.66667H3.33333C2.83333 6.66667 2.5 6.33333 2.5 5.83333V2.5C2.5 2 2.83333 1.66667 3.33333 1.66667C3.83333 1.66667 4.16667 2 4.16667 2.5V5H6.66667C7.16667 5 7.5 5.33333 7.5 5.83333C7.5 6.33333 7.16667 6.66667 6.66667 6.66667Z" fill="#293A30" fill-opacity="0.6"/>
</svg>
